<svg id="SvgjsSvg1090" width="614.9999694824219" height="459.98931884765625" xmlns="http://www.w3.org/2000/svg" version="1.1" xmlns:xlink="http://www.w3.org/1999/xlink" xmlns:svgjs="http://svgjs.com/svgjs"><defs id="SvgjsDefs1091"><marker id="SvgjsMarker1100" markerWidth="16" markerHeight="12" refX="16" refY="6" viewBox="0 0 16 12" orient="auto" markerUnits="userSpaceOnUse" stroke-dasharray="0,0"><path id="SvgjsPath1101" d="M0,2 L14,6 L0,11 L0,2" fill="#323232" stroke="#323232" stroke-width="2"></path></marker><marker id="SvgjsMarker1114" markerWidth="16" markerHeight="12" refX="16" refY="6" viewBox="0 0 16 12" orient="auto" markerUnits="userSpaceOnUse" stroke-dasharray="0,0"><path id="SvgjsPath1115" d="M0,2 L14,6 L0,11 L0,2" fill="#323232" stroke="#323232" stroke-width="2"></path></marker><marker id="SvgjsMarker1128" markerWidth="16" markerHeight="12" refX="16" refY="6" viewBox="0 0 16 12" orient="auto" markerUnits="userSpaceOnUse" stroke-dasharray="0,0"><path id="SvgjsPath1129" d="M0,2 L14,6 L0,11 L0,2" fill="#323232" stroke="#323232" stroke-width="2"></path></marker><marker id="SvgjsMarker1142" markerWidth="16" markerHeight="12" refX="16" refY="6" viewBox="0 0 16 12" orient="auto" markerUnits="userSpaceOnUse" stroke-dasharray="0,0"><path id="SvgjsPath1143" d="M0,2 L14,6 L0,11 L0,2" fill="#323232" stroke="#323232" stroke-width="2"></path></marker><marker id="SvgjsMarker1156" markerWidth="16" markerHeight="12" refX="16" refY="6" viewBox="0 0 16 12" orient="auto" markerUnits="userSpaceOnUse" stroke-dasharray="0,0"><path id="SvgjsPath1157" d="M0,2 L14,6 L0,11 L0,2" fill="#323232" stroke="#323232" stroke-width="2"></path></marker><marker id="SvgjsMarker1172" markerWidth="16" markerHeight="12" refX="16" refY="6" viewBox="0 0 16 12" orient="auto" markerUnits="userSpaceOnUse" stroke-dasharray="0,0"><path id="SvgjsPath1173" d="M0,2 L14,6 L0,11 L0,2" fill="#323232" stroke="#323232" stroke-width="2"></path></marker></defs><g id="SvgjsG1092" transform="translate(322.0007629394531,25)"><path id="SvgjsPath1093" d="M 0 33C 0 -11 178 -11 178 33C 178 77 0 77 0 33Z" stroke="rgba(50,50,50,1)" stroke-width="2" fill-opacity="1" fill="#ffffff"></path><g id="SvgjsG1094"><text id="SvgjsText1095" font-family="微软雅黑" text-anchor="middle" font-size="13px" width="158px" fill="#323232" font-weight="400" align="middle" anchor="middle" family="微软雅黑" size="13px" weight="400" font-style="" opacity="1" y="23.55" transform="rotate(0)"><tspan id="SvgjsTspan1096" dy="16" x="89"><tspan id="SvgjsTspan1097" style="text-decoration:;">附近的学校怎么样？</tspan></tspan></text></g></g><g id="SvgjsG1098"><path id="SvgjsPath1099" d="M411.0007629394531 91L298.0007629394531 158" stroke="#323232" stroke-width="2" fill="none" marker-end="url(#SvgjsMarker1100)"></path><rect id="SvgjsRect1102" width="13" height="15" x="348.0007629394531" y="117" fill="#ffffff"></rect><text id="SvgjsText1103" font-family="微软雅黑" text-anchor="middle" font-size="13px" width="13px" fill="#323232" font-weight="400" align="top" anchor="middle" family="微软雅黑" size="13px" weight="400" font-style="" opacity="1" y="115.05" transform="rotate(0)"><tspan id="SvgjsTspan1104" dy="16" x="354.5007629394531"><tspan id="SvgjsTspan1105" style="text-decoration:;">好</tspan></tspan></text></g><g id="SvgjsG1106" transform="translate(228.00076293945312,123)"><path id="SvgjsPath1107" d="M 0 35C 0 -11.666666666666666 70 -11.666666666666666 70 35C 70 81.66666666666667 0 81.66666666666667 0 35Z" stroke="rgba(50,50,50,1)" stroke-width="2" fill-opacity="1" fill="#ffffff"></path><g id="SvgjsG1108"><text id="SvgjsText1109" font-family="微软雅黑" text-anchor="middle" font-size="13px" width="50px" fill="#323232" font-weight="400" align="middle" anchor="middle" family="微软雅黑" size="13px" weight="400" font-style="" opacity="1" y="25.55" transform="rotate(0)"><tspan id="SvgjsTspan1110" dy="16" x="35"><tspan id="SvgjsTspan1111" style="text-decoration:;">价格</tspan></tspan></text></g></g><g id="SvgjsG1112"><path id="SvgjsPath1113" d="M411.0007629394531 91L520.0007629394531 158" stroke="#323232" stroke-width="2" fill="none" marker-end="url(#SvgjsMarker1114)"></path><rect id="SvgjsRect1116" width="26" height="15" x="452.5007629394531" y="117" fill="#ffffff"></rect><text id="SvgjsText1117" font-family="微软雅黑" text-anchor="middle" font-size="13px" width="26px" fill="#323232" font-weight="400" align="top" anchor="middle" family="微软雅黑" size="13px" weight="400" font-style="" opacity="1" y="115.05" transform="rotate(0)"><tspan id="SvgjsTspan1118" dy="16" x="465.5007629394531"><tspan id="SvgjsTspan1119" style="text-decoration:;">不好</tspan></tspan></text></g><g id="SvgjsG1120" transform="translate(520.0007629394531,123)"><path id="SvgjsPath1121" d="M 0 35C 0 -11.666666666666666 70 -11.666666666666666 70 35C 70 81.66666666666667 0 81.66666666666667 0 35Z" stroke="rgba(50,50,50,1)" stroke-width="2" fill-opacity="1" fill="#ffffff"></path><g id="SvgjsG1122"><text id="SvgjsText1123" font-family="微软雅黑" text-anchor="middle" font-size="13px" width="50px" fill="#323232" font-weight="400" align="middle" anchor="middle" family="微软雅黑" size="13px" weight="400" font-style="" opacity="1" y="25.55" transform="rotate(0)"><tspan id="SvgjsTspan1124" dy="16" x="35"><tspan id="SvgjsTspan1125" style="text-decoration:;">不买</tspan></tspan></text></g></g><g id="SvgjsG1126"><path id="SvgjsPath1127" d="M263.0007629394531 193L148.00076293945312 236" stroke="#323232" stroke-width="2" fill="none" marker-end="url(#SvgjsMarker1128)"></path><rect id="SvgjsRect1130" width="39" height="15" x="186.00076293945312" y="207" fill="#ffffff"></rect><text id="SvgjsText1131" font-family="微软雅黑" text-anchor="middle" font-size="13px" width="39px" fill="#323232" font-weight="400" align="top" anchor="middle" family="微软雅黑" size="13px" weight="400" font-style="" opacity="1" y="205.05" transform="rotate(0)"><tspan id="SvgjsTspan1132" dy="16" x="205.50076293945312"><tspan id="SvgjsTspan1133" style="text-decoration:;">能承受</tspan></tspan></text></g><g id="SvgjsG1134" transform="translate(326.0007629394531,236)"><path id="SvgjsPath1135" d="M 0 35C 0 -11.666666666666666 70 -11.666666666666666 70 35C 70 81.66666666666667 0 81.66666666666667 0 35Z" stroke="rgba(50,50,50,1)" stroke-width="2" fill-opacity="1" fill="#ffffff"></path><g id="SvgjsG1136"><text id="SvgjsText1137" font-family="微软雅黑" text-anchor="middle" font-size="13px" width="50px" fill="#323232" font-weight="400" align="middle" anchor="middle" family="微软雅黑" size="13px" weight="400" font-style="" opacity="1" y="25.55" transform="rotate(0)"><tspan id="SvgjsTspan1138" dy="16" x="35"><tspan id="SvgjsTspan1139" style="text-decoration:;">不买</tspan></tspan></text></g></g><g id="SvgjsG1140"><path id="SvgjsPath1141" d="M263.0007629394531 193L361.0007629394531 236" stroke="#323232" stroke-width="2" fill="none" marker-end="url(#SvgjsMarker1142)"></path><rect id="SvgjsRect1144" width="26" height="15" x="299.0007629394531" y="207" fill="#ffffff"></rect><text id="SvgjsText1145" font-family="微软雅黑" text-anchor="middle" font-size="13px" width="26px" fill="#323232" font-weight="400" align="top" anchor="middle" family="微软雅黑" size="13px" weight="400" font-style="" opacity="1" y="205.05" transform="rotate(0)"><tspan id="SvgjsTspan1146" dy="16" x="312.0007629394531"><tspan id="SvgjsTspan1147" style="text-decoration:;">不能</tspan></tspan></text></g><g id="SvgjsG1148" transform="translate(113.00076293945312,236)"><path id="SvgjsPath1149" d="M 0 35C 0 -11.666666666666666 70 -11.666666666666666 70 35C 70 81.66666666666667 0 81.66666666666667 0 35Z" stroke="rgba(50,50,50,1)" stroke-width="2" fill-opacity="1" fill="#ffffff"></path><g id="SvgjsG1150"><text id="SvgjsText1151" font-family="微软雅黑" text-anchor="middle" font-size="13px" width="50px" fill="#323232" font-weight="400" align="middle" anchor="middle" family="微软雅黑" size="13px" weight="400" font-style="" opacity="1" y="25.55" transform="rotate(0)"><tspan id="SvgjsTspan1152" dy="16" x="35"><tspan id="SvgjsTspan1153" style="text-decoration:;">面积</tspan></tspan></text></g></g><g id="SvgjsG1154"><path id="SvgjsPath1155" d="M148.00076293945312 306L60.000762939453125 360" stroke="#323232" stroke-width="2" fill="none" marker-end="url(#SvgjsMarker1156)"></path></g><g id="SvgjsG1158" transform="translate(25.000762939453125,360)"><path id="SvgjsPath1159" d="M 0 35C 0 -11.666666666666666 70 -11.666666666666666 70 35C 70 81.66666666666667 0 81.66666666666667 0 35Z" stroke="rgba(50,50,50,1)" stroke-width="2" fill-opacity="1" fill="#ffffff"></path><g id="SvgjsG1160"><text id="SvgjsText1161" font-family="微软雅黑" text-anchor="middle" font-size="13px" width="50px" fill="#323232" font-weight="400" align="middle" anchor="middle" family="微软雅黑" size="13px" weight="400" font-style="" opacity="1" y="25.55" transform="rotate(0)"><tspan id="SvgjsTspan1162" dy="16" x="35"><tspan id="SvgjsTspan1163" style="text-decoration:;">买</tspan></tspan></text></g></g><g id="SvgjsG1164" transform="translate(216.00076293945312,366)"><path id="SvgjsPath1165" d="M 0 35C 0 -11.666666666666666 70 -11.666666666666666 70 35C 70 81.66666666666667 0 81.66666666666667 0 35Z" stroke="rgba(50,50,50,1)" stroke-width="2" fill-opacity="1" fill="#ffffff"></path><g id="SvgjsG1166"><text id="SvgjsText1167" font-family="微软雅黑" text-anchor="middle" font-size="13px" width="50px" fill="#323232" font-weight="400" align="middle" anchor="middle" family="微软雅黑" size="13px" weight="400" font-style="" opacity="1" y="25.55" transform="rotate(0)"><tspan id="SvgjsTspan1168" dy="16" x="35"><tspan id="SvgjsTspan1169" style="text-decoration:;">不买</tspan></tspan></text></g></g><g id="SvgjsG1170"><path id="SvgjsPath1171" d="M148.00076293945312 306L251.00076293945312 366" stroke="#323232" stroke-width="2" fill="none" marker-end="url(#SvgjsMarker1172)"></path></g></svg>